<svg xmlns="http://www.w3.org/2000/svg" xmlns:xlink="http://www.w3.org/1999/xlink" xml:space="preserve" width="800" height="652.7"><defs><path id="a" d="M0 0h800v652.7H0z"/></defs><use xlink:href="#a" fill="#B81420" overflow="visible"/><path fill="#FFF" d="M648.5 326c0-89.4-68-95.7-82.2-95.7-22.1 0-43.4 4.6-65.9 13.5l-1.6 23.5c8.8-4 36.8-16.1 64.7-16.1 22 0 38.8 7.4 50.3 21.9-75.6 39.8-120.7 71.7-127.5 98.2-19.3 13.1-53.4 28.2-83.8 28.2-32.3 0-46.2-14-52.2-22 83-55.8 125.9-88 120.6-113.4-4.7-23-38.8-33.7-69.3-33.7a87.9 87.9 0 0 0-62.8 24c-16.4 16.8-24.1 41.7-23.1 74.1.4 14.2 3.2 28.9 7.9 41.8-12.7 8.3-47.4 29.3-87.2 29.3-47.2 0-66.7-37-66.7-74.2 0-36.2 18.2-74.3 66.7-74.3 27.3 0 54.7 11.6 64 15.9l-1.5-23.5a179.8 179.8 0 0 0-60.9-13.1c-80.3 0-87 67.4-86.6 95-.4 27.5 7 95 85.9 95 47.7 0 88.3-26.3 95.7-31 5 8.9 25.4 31 69.3 31 34.8 0 73.4-17.4 86.3-25.7 7.9 10.6 24 25.7 73.3 25.7 32.5 0 53.2-11.3 66.1-26.8.3 8.1.5 16.1 1 22.2l19.6 3c-.6-20.5 0-91.7 0-92.8m-313.8 11.4c0-.4-5.5-42.2 16.8-67.8 11.5-13.2 28.6-20 50.6-20 23.8 0 43.7 8.4 45.8 17.9 1.5 7.1-5.2 16.2-36 40.8a581 581 0 0 1-71.4 50.4c-2.5-6.4-4.5-13.6-5.8-21.3M612.6 381c-11.6 13.3-29 19-51 19.2-50.2.5-55.1-18.6-55.1-18.6-5.2-11.7 11.7-35.3 116.8-91 2.6 6.5 4.7 14.8 6 22.7.1.4 5.5 42.2-16.7 67.7"/><defs><filter id="b" width="458.2" height="19.5" x="170.9" y="482.7" filterUnits="userSpaceOnUse"><feFlood flood-color="#fff" flood-opacity="1" result="back"/><feBlend in="SourceGraphic" in2="back"/></filter></defs><mask id="c" width="458.2" height="19.5" x="170.9" y="482.7" maskUnits="userSpaceOnUse"><g filter="url(#b)"/></mask><g mask="url(#c)"><defs><path id="d" d="M170.9 482.7h458.2v19.5H170.9z"/></defs><use xlink:href="#d" fill="#73BE4B" overflow="visible"/><clipPath id="e"><use xlink:href="#d" overflow="visible"/></clipPath><g clip-path="url(#e)"><defs><path id="f" d="M170.9 482.7h458.2v19.5H170.9z"/></defs><use xlink:href="#f" fill="#76B72A" overflow="visible"/><clipPath id="g"><use xlink:href="#f" overflow="visible"/></clipPath><path fill="#76B72A" d="M170.9 482.7h458.2v19.5H170.9z" clip-path="url(#g)"/></g></g></svg>
