<svg xmlns="http://www.w3.org/2000/svg" xml:space="preserve" width="700" height="363"><g fill="#b00739"><path d="M407.4 154.7c-5.4-11.4-19.5-15.9-31.5-10-12 5.7-20.7 21.2-15.4 32.6 5.4 11.4 22.8 14.3 34.8 8.5 12-5.8 17.4-19.7 12-31.1"/><path d="M459.8 129.5A82.2 82.2 0 0 0 350 90.2a82.2 82.2 0 0 0-28.4 22.7l28.6 23.4a45.3 45.3 0 0 1 76.3 9.2 46.2 46.2 0 0 1-40.6 65.8v37.2c11.8 0 23.8-2.7 35-8.1a83.3 83.3 0 0 0 38.9-110.9"/></g><g fill="#8c7a99"><path d="M312 71c-5.6-11.8-23.6-14.9-36.1-8.8-12.5 6-18.2 20.5-12.6 32.3 5.6 11.8 20.2 16.5 32.7 10.5 12.5-6 21.6-22.2 16-34"/><path d="M321.6 112.8a45.4 45.4 0 0 1-80.8-29 46 46 0 0 1 45-46V.7a83.3 83.3 0 0 0-74 119 82.3 82.3 0 0 0 74.5 47.4 81.4 81.4 0 0 0 64-30.7l-28.7-23.5z"/></g><path d="M72.3 321.7c0-6.2 1.2-15.2 9.4-15.2 8.4 0 9.5 9 9.5 15.2h-19zm9.5-18.1c-10.5 0-18.8 9.8-18.8 21.3s8.3 21.3 18.8 21.3c9.2 0 13.9-3.8 17.7-9.5l-2-1.4c-3.3 4.4-7.1 8-12.8 8-7.4 0-12.4-6.8-12.4-18.7H100c0-14-8.2-21-18.2-21M137.4 303.6c-6 0-10 3.2-13 8.6h-.3V304l-13.4.5v3c4.5 0 6 .8 6 3.6v34h8.1v-23.6c0-6.6 4.1-14.6 10.4-14.6 3.2 0 6.9 1.8 6.9 9.3v28.9h8v-25.8c0-12.6-6.7-15.8-12.7-15.8M189.4 334c0 6.9-2.9 9.3-6.2 9.3-2.5 0-4.7-.9-4.7-4.5v-31.3h11.8v-2.9h-11.8v-13.5h-3.1c-2.2 10.6-3.2 12.8-11.2 13.5v3h6.2v28c0 8.6 4.7 10.6 10.6 10.6 8.5 0 10.8-4.8 10.8-12.6v-1.5h-2.4v1.9zM226.3 303.6c-7 0-9.9 5.3-11.7 12.2h-.2v-11.7l-13.5.5v3c4.6 0 6.1.8 6.1 3.6v34h8v-11.7c0-16.4 4.3-27 10-27 .5 0 .8 0 1.1.2-1.2.7-1.7 2-1.7 3.3 0 2.5 1.4 4.1 4.1 4.1 2.7 0 4.6-2.2 4.6-4.6 0-2.6-2-6-6.8-6M266.9 330.1c0 7.4-4.7 12.5-10 12.5-4.1 0-6-2.8-6-6.7 0-7.5 10-11.8 16-13.3v7.5zm10.7 11.1c-1.6 0-2.7-.5-2.7-4.8v-21c0-9-5.4-11.8-16.6-11.8-7.7 0-14.5 4.4-14.5 9.6a5 5 0 1 0 9.9 0c0-2.4-1.3-4.1-3.6-4.5a14 14 0 0 1 8-2.2c3.3 0 8.8 1 8.8 5.4v8c-7.3 2.5-25.3 6.5-25.3 16.4 0 6.7 6 10 12 10 6.4 0 11.4-2 13.8-8.4h.2c.7 4.5 1.9 7.8 6.9 7.8 6 0 8.8-5 8.8-10.5h-2.4c0 2-.6 6-3.3 6M329.3 321.7c0-6.2 1.2-15.2 9.4-15.2 8.4 0 9.6 9 9.6 15.2h-19zm9.6-18.1c-10.6 0-18.8 9.8-18.8 21.3s8.2 21.3 18.8 21.3c9.1 0 13.8-3.8 17.7-9.5l-2-1.4c-3.3 4.4-7.2 8-12.9 8-7.4 0-12.4-6.8-12.4-18.7H357c0-14-8.1-21-18.1-21M449.8 304.6v3c5.1 0 6.7.8 6.7 3.6v19.3c-.8 5.7-3.9 12.3-10.9 12.3-4.5 0-6.4-3.5-6.4-8.3v-29.9h-14.1v3c4.5 0 6 .8 6 3.6v19.5c0 10.2 5.1 15.5 12.8 15.5 5.9 0 10-3.3 13-8.6h.2v7.5h7.4v-40.5h-14.7zM378.8 298.2c0-7 4.9-10.5 11.4-10.5 9.9 0 14.7 9.6 17 18.2h2.3v-20h-2.9c-.2.8-1.3 3.9-2.6 3.9-2 0-6.2-5-14-5-9 0-18.2 6-18.2 16.4 0 23 34.2 11.5 34.2 30.9 0 7-6.3 11.3-13.8 11.3-11.7 0-17-6.7-18.9-16h-2.6c1.9 11.3 8.7 18.9 21.9 18.9 11.3-.1 20.4-7.3 20.4-19.3 0-21.2-34.2-12.3-34.2-28.8M502.5 343.3c-2.8 0-9.7-2.7-9.7-15.8v-2.3c0-11 3.9-18.7 10.4-18.7 7.3 0 10.4 7.8 10.4 18.7 0 12.7-3 18-11.1 18m1.8-39.6c-6.8 0-10 4.1-12 9h-.2v-8l-13.9.5v3c5 0 6.5.8 6.5 3.6V363h8v-23.8h.2c2.6 5 5.4 7 11.5 7 10.2 0 18-10.3 18-21.7 0-10.8-8.1-21-18.1-21M565.3 290.3c1.5-1 2.6-2.4 2.6-3.6 0-1.6-.9-2.8-3-2.8-1.6 0-2.6.8-3.6 2l-12.6 12.8h3.4l13.2-8.4zM544.9 321.7c0-6.2 1.2-15.2 9.4-15.2 8.4 0 9.5 9 9.5 15.2h-19zm9.5-18.1c-10.6 0-18.8 9.8-18.8 21.3s8.2 21.3 18.8 21.3c9.2 0 13.9-3.8 17.7-9.5l-2-1.4c-3.3 4.4-7.1 8-12.8 8-7.4 0-12.4-6.8-12.4-18.7h27.7c0-14-8.2-21-18.2-21M583.7 292.3c5 0 6.5.9 6.5 3.7v49.2h8v-56.3l-14.5.5v3zM697.9 335.3c-3 4.5-6.9 8-13 8-9.2 0-13.1-8.6-13.1-19.4 0-11 5.2-17.4 12.3-17.4 9.5 0 4.8 10.4 10.8 10.4 2.4 0 4.6-1.8 4.6-4.3 0-5.7-8-9-14.6-9-11.5 0-22.3 9-22.3 21.3s9 21.3 20.7 21.3c7.9 0 13.2-3.8 16.7-9.9l-2.1-1zM290.4 292.3c5 0 6.4.9 6.4 3.7v49.2h8v-56.3l-14.4.5v3zM622.2 321.7c0-6.2 1.2-15.2 9.4-15.2 8.4 0 9.6 9 9.6 15.2h-19zm9.6-18.1c-10.6 0-18.8 9.8-18.8 21.3s8.2 21.3 18.8 21.3c9.1 0 13.8-3.8 17.6-9.5l-2-1.4c-3.3 4.4-7.1 8-12.8 8-7.4 0-12.4-6.8-12.4-18.7h27.7c0-14-8.1-21-18.1-21M27.6 343.3c-7.4 0-17.7-7.1-17.7-27.8 0-18.7 5.7-27.8 18-27.8 10.9 0 15 9.4 17.6 19h2.3v-20.4h-2c-.6 1.6-2 3.3-3.6 3.3-1.4 0-7.6-4.9-15.2-4.9-15.5 0-27 14.8-27 30.8s11.5 30.7 26 30.7c14.3 0 21.1-7.3 23-18.8h-2.5c-2 9.2-7.2 15.9-18.9 15.9"/></svg>
