<svg xmlns="http://www.w3.org/2000/svg" xml:space="preserve" id="Calque_1" x="0" y="0" version="1.1" viewBox="0 0 55.3 55.3"><style>.st1{fill:#fff}</style><path fill="#00294b" d="M26.5.1 25 0C18.2 0 12 2.9 6.6 8.7 1.6 13.9 0 18.2 0 23.3c0 2.7.5 5.7 1.2 9.2 1.3 6.6 5.3 13 10.8 17.6A22 22 0 0 0 33.8 54c8.6-3 16.9-11.5 20.1-20.7 1-2.9 1.5-5.8 1.5-8.5 0-6.6-3-12.4-8.8-16.5A38.4 38.4 0 0 0 26.5.1z"/><path d="M16.6 27.7h-1.9v.1c0 .4-.2 3.6-3.1 3.6-2.6 0-3.9-2.3-3.9-6.9 0-4.6 1.3-6.9 3.9-6.9 2.9 0 3.1 3.4 3.1 3.6v.1h1.9l.5-.2.2-.4c0-.9-.5-5.4-5.7-5.4-4.2 0-6.4 3.2-6.4 9.2s2.2 9.2 6.4 9.2c5 0 5.6-4.1 5.7-5.3l-.2-.5a.8.8 0 0 0-.5-.2zM46.1 23.4l-1.6-.7c-1.6-.7-2.1-1.4-2.1-2.6 0-1.6 1.1-2.6 2.9-2.6 1 0 1.8.2 2.8 1.2l.1.1.8-.8c.5-.5.4-.9.1-1.2-.8-1-2.2-1.6-3.9-1.6-3.1 0-5.4 2.1-5.4 4.9 0 2.8 1.7 3.9 3.6 4.8l1.7.7c1.7.7 2.5 1.4 2.5 3 0 2.2-2 2.8-3.2 2.8-1 0-2.1-.2-3.5-1.8l-.1-.1-.8.9c-.5.4-.5.8 0 1.3a5.4 5.4 0 0 0 4.4 1.9c2.8 0 5.7-1.7 5.7-5.1 0-2.8-1.6-4.1-4-5.1zM30 20.6a5.2 5.2 0 0 0-8.7-3.9v-1h-1.7c-.5 0-.7.3-.7.7V33c0 .5.3.7.7.7h1.7v-13c0-1.7 1.4-3.1 3.1-3.1 1.7 0 3.1 1.4 3.1 3.1v13.1h1.7c.5 0 .7-.3.7-.7l.1-12.5zM39.8 16.5l.1-.4c0-.3-.2-.5-.4-.6-.5-.2-1-.2-1.6-.2-1.3 0-2.6.5-3.5 1.3v-1h-1.7c-.5 0-.7.3-.7.7V33c0 .5.3.7.7.7h1.7V20.6c0-1.7 1.4-3.1 3.1-3.1.4 0 .9.1 1.3.3l1-1.3z" class="st1"/></svg>
