<svg xmlns="http://www.w3.org/2000/svg" aria-hidden="true" viewBox="126.2 53.2 47 20"><path fill="#FF5E11" fill-rule="evenodd" d="M138.3 56.3c0-.7 0-1.6.5-2 .1-.7 1.2-.5 1-1 0-.2-.6 0-.8 0l-2.1.5-.7-.2c-1 .1-1.5.9-2 1.4-.4.5-1 1.7-.5 2.4v.4l1 1.5.7.7.3.4c.3.2 1.2.2 1.4 0 1.4.2 1.3-2.8 1.7-3.4 0-.3-.3-.6-.5-.7zm-6.4 9 1.2-.3c.4-.3 2-1.3 1.5-2.2-.2-1.8-2.4-.3-3.4-1-1 0-2-1.9-2.3-2.6 0-.3 0-.2-.2-.5 0 0-.1.1-.1 0-.3.4-.2.7-.3 1.5h-.3l-.2.6-.1.1c-.3 0-.1 0-.2-.2-1 0-.9 1-1.3 1.5 0 1.6 3.3 3.7 5.7 3zm10.9-5c-1.4.1-2.3.6-2.8 1-.4.2-.5.4-.6.5l-.1.6c0 .3.1.6.4.7 1.7-.1 4.8-.2 5.4 1.2v.4h1l1-.1c.2 0 .3-.2.3-.2v-.2h.4c.8-.2.4-.6.7-1-.2-2.7-3-3.4-5.7-3zm-3.1 5.9c-.4.3-.6.2-.8.7.2.6.8.8 1.2 1.1l.6.8.4.8c.2.2 0 .6.1.7 0 .7 0 .8-.2 1l.1.2.4.2c.4 0 2 1.2 2.2 1.5 1.1 0 1-.3 1.8-.6.2-.1.4 0 .6-.2l.3-.6c0-2.8-3.9-5.5-6.7-5.6zm-4.6.7c-.1.1-.6.2-.7.4a8 8 0 0 1-1 1.3c-1 1-3.4 1.5-4.5.5-.1 0 0 0 0 .4.1.5.5 1.8.4 2 0 .4.2.3.4.5l.3.6h.6v.2h.7l.7.2h.7c.6.1 1 0 1.6-.4l.8-.4a5.6 5.6 0 0 0 1-1.3c.6-1 .4-3.3-.1-3.9-.2-.2-.4-.2-.9-.1z" clip-rule="evenodd"/><path fill="#07387A" d="M162.8 60.4c2.3 0 4 1.5 4 4.2 0 3.4-2.2 4.4-4.6 4.4h-3v-8.6h3.6zm-.7 7c1.3 0 2.4-.5 2.4-2.8 0-2-1.1-2.6-2.4-2.6h-.7v5.3h.7zm8 .3V69H168v-8.6h5.4v1.7H170v1.7h2.8v1.5h-2.8v2.4zm-15.5-.5c-1.1 0-2-.7-2-1.8v-.1h5.3v-.7c0-3-1.2-4.4-3.8-4.4-1.2 0-3.9.5-3.9 4.6 0 2.7 1.4 4.3 3.8 4.3 1.9 0 3-.5 3.9-1-.1-.2-.8-1.5-1-1.6a4 4 0 0 1-2.3.7zm-2-3.6c.1-.5.3-1.6 1.5-1.6 1.3 0 1.4 1 1.4 1.6v.2h-2.8v-.2z"/></svg>
