<svg xmlns="http://www.w3.org/2000/svg" xml:space="preserve" id="logo" x="0" y="0" version="1.1" viewBox="0 0 117 46"><style>.st0{fill:#283276}.st1{fill:#f29fc5}.st2{fill:#008ecf}.st3{fill:#e1000f}.st4{fill:#ffe000}</style><path d="M40.9 32.6a3.9 3.9 0 1 1-3.9-3.9 4 4 0 0 1 3.9 3.9" class="st0"/><path d="M15.5 18.2c0 2.1-1.7 3.9-3.9 3.9s-3.9-1.7-3.9-3.9a3.9 3.9 0 0 1 7.8 0" class="st1"/><path d="M33.7 28.4c0 2.1-1.7 3.9-3.9 3.9S26 30.5 26 28.4c0-2.1 1.7-3.9 3.9-3.9s3.8 1.8 3.8 3.9" class="st2"/><path d="M24.3 33.1c0 2.1-1.7 3.9-3.9 3.9s-3.9-1.7-3.9-3.9c0-2.1 1.7-3.9 3.9-3.9s3.9 1.7 3.9 3.9" class="st1"/><path d="M24.3 42.1a3.9 3.9 0 1 1-3.9-3.9 4 4 0 0 1 3.9 3.9M40.9 13.4A3.9 3.9 0 1 1 37 9.5a4 4 0 0 1 3.9 3.9M33.7 18.2c0 2.1-1.7 3.9-3.9 3.9S26 20.4 26 18.2c0-2.1 1.7-3.9 3.9-3.9s3.8 1.8 3.8 3.9M15 28.7c0 2.1-1.7 3.9-3.9 3.9s-3.9-1.7-3.9-3.9a3.9 3.9 0 0 1 7.8 0M7.6 12.6c.5 2.1-.8 4.1-2.9 4.6-2.1.5-4.1-.8-4.6-2.9-.4-2.1.9-4.2 2.9-4.6 2.1-.5 4.2.8 4.6 2.9" class="st0"/><path d="M7.3 20.9c-.2 1.2-1.3 2-2.5 1.9-1.2-.2-2-1.3-1.9-2.5.2-1.2 1.3-2 2.5-1.9 1.2.2 2 1.3 1.9 2.5M29.4 36.8a2.5 2.5 0 0 1-2.9 2.1 2.5 2.5 0 0 1-2.1-2.9 2.5 2.5 0 0 1 2.9-2.1c1.3.2 2.2 1.5 2.1 2.9M36.8 20.8c-.1.8-.9 1.4-1.7 1.3-.8-.1-1.4-.9-1.3-1.7.1-.8.9-1.4 1.7-1.3.9.1 1.4.9 1.3 1.7M21.8 13.7c-.2 1.2-1.3 2-2.5 1.9-1.2-.2-2-1.3-1.9-2.5.2-1.2 1.3-2 2.5-1.9 1.3.2 2.1 1.3 1.9 2.5" class="st3"/><path d="M28.1 10.8c-.2 1.2-1.3 2-2.5 1.9-1.2-.2-2-1.3-1.9-2.5.2-1.2 1.3-2 2.5-1.9 1.3.2 2.1 1.3 1.9 2.5" class="st1"/><path d="M13.9 34.9c-.2 1.2-1.3 2-2.5 1.9-1.2-.2-2-1.3-1.9-2.5.2-1.2 1.3-2 2.5-1.9 1.2.2 2 1.4 1.9 2.5M35.4 25.1c-.2 1.2-1.3 2-2.5 1.9-1.2-.2-2-1.3-1.9-2.5.2-1.2 1.3-2 2.5-1.9 1.3.2 2.1 1.3 1.9 2.5" class="st4"/><path d="M32.9 35.3c.6 1 .3 2.4-.7 3-1 .6-2.4.3-3-.7-.6-1-.3-2.4.7-3 1-.7 2.4-.3 3 .7" class="st0"/><path d="M16.2 9.5c-.2 1.2-1.3 2-2.5 1.9-1.2-.2-2-1.3-1.9-2.5.2-1.2 1.3-2 2.5-1.9 1.2.2 2 1.3 1.9 2.5" class="st4"/><path d="M24.5 4a4 4 0 0 1-4 4 4 4 0 0 1-4-4 4 4 0 0 1 4-4 4 4 0 0 1 4 4M7.7 32.6c0 2.1-1.7 3.9-3.9 3.9S0 34.7 0 32.6c0-2.1 1.7-3.9 3.9-3.9s3.8 1.8 3.8 3.9M26.7 22.2a6.7 6.7 0 1 1-13.4 0 6.7 6.7 0 0 1 13.4 0" class="st2"/><path d="M50 8.9h6.8v1.7H52v3.5h4.1v1.7H52v5.3h-2zM58.4 12.4h1.8v1c.6-.7 1.4-1.2 2.5-1.2l.8.1v1.8l-.9-.1c-1.1 0-1.8.6-2.3 1.3v5.9h-1.8v-8.8zM64.4 18.9c0-1.3 1-2.3 2.9-2.6l2.8-.5v-.5c0-1.1-.8-1.7-1.9-1.7-1 0-1.7.4-2.2 1.1l-1.3-1c.8-1 2-1.7 3.6-1.7 2.4 0 3.7 1.4 3.7 3.3v5.8h-1.8v-1c-.6.8-1.7 1.3-2.8 1.3-1.8 0-3-1-3-2.5m3.3 1c1.1 0 2-.5 2.5-1.4V17l-2.4.4c-1.1.2-1.6.7-1.6 1.3.1.8.6 1.2 1.5 1.2M74.5 12.4h1.8v.9c.7-.7 1.5-1.2 2.8-1.2 1.9 0 3.4 1.3 3.4 3.8v5.3h-1.8V16c0-1.4-.8-2.2-2-2.2s-1.9.7-2.4 1.5v5.9h-1.8v-8.8zM91.7 18.6l1.4 1.1a4.5 4.5 0 0 1-3.7 1.8c-2.9 0-4.8-2.2-4.8-4.7s1.8-4.7 4.8-4.7c1.6 0 2.9.7 3.7 1.8L91.7 15a2.8 2.8 0 0 0-2.3-1.2c-1.7 0-2.9 1.3-2.9 3s1.2 3 2.9 3c1 0 1.8-.5 2.3-1.2M99 21.5c-3 0-4.8-2.2-4.8-4.7 0-2.6 1.7-4.7 4.5-4.7 2.4 0 4 1.7 4 3.9l-.1 1.1H96c.1 1.9 1.3 2.9 3 2.9a3 3 0 0 0 2.5-1.2l1.3 1c-.8 1-2.1 1.7-3.8 1.7m-2.9-5.9h4.7c0-1.1-.8-2.1-2.2-2.1-1.3 0-2.2.8-2.5 2.1M48.7 24.6h9.8v1.8h-3.9v10.4h-2V26.4h-3.9zM59.4 28h1.8v1c.6-.7 1.4-1.2 2.5-1.2l.8.1v1.8l-.9-.1c-1.1 0-1.8.6-2.3 1.3v5.9h-1.8V28zM65.4 34.5c0-1.3 1-2.3 2.9-2.6l2.8-.5V31c0-1.1-.8-1.7-1.9-1.7-1 0-1.7.4-2.2 1.1l-1.3-1c.8-1 2-1.7 3.6-1.7 2.4 0 3.7 1.4 3.7 3.3v5.8h-1.8v-1c-.6.8-1.7 1.3-2.8 1.3-1.8 0-3-1-3-2.6m3.3 1.1c1.1 0 2-.5 2.5-1.4v-1.5l-2.4.4c-1.1.2-1.6.7-1.6 1.3 0 .7.6 1.2 1.5 1.2M76.3 28l2.6 6.8 2.6-6.8h1.9l-3.3 8.8h-2.4L74.4 28zM84.4 34.5c0-1.3 1-2.3 2.9-2.6l2.8-.5V31c0-1.1-.8-1.7-1.9-1.7-1 0-1.7.4-2.2 1.1l-1.3-1c.8-1 2-1.7 3.6-1.7 2.4 0 3.7 1.4 3.7 3.3v5.8h-1.8v-1c-.6.8-1.7 1.3-2.8 1.3-1.9 0-3-1-3-2.6m3.2 1.1c1.1 0 2-.5 2.5-1.4v-1.5l-2.4.4c-1.1.2-1.6.7-1.6 1.3.1.7.6 1.2 1.5 1.2M94.7 28h1.8v8.8h-1.8zM99.4 23.7h1.8v13.1h-1.8zM94.5 25.3c0-.6.5-1.1 1.1-1.1.6 0 1.1.5 1.1 1.1 0 .6-.5 1.1-1.1 1.1-.6 0-1.1-.5-1.1-1.1" class="st0"/></svg>
