<svg xmlns="http://www.w3.org/2000/svg" viewBox="0 0 283.5 82.8"><g data-name="Calque 2"><path fill="#e53516" d="M56.7 10.7a59 59 0 0 0 11.5-9c2.8-3-9.6-1.6-12.5 1a83 83 0 0 0-9.5 9.2c-1.7 2 6.7 1.1 10.5-1.2Zm225.4 64c2.1 1.3 2-5.6-2.4-8.3-15.7-9.9-59 7.3-75.3 9.2-3 .4-4.2-.4-3.5-2.5 1.4-4 6.9-11.4 8-14s1-10.7-11.4-10.7c-10.1 0-19.3 4.7-25.9 10.6-6.2 5.3-18.2 15.7-25.6 15.7-7.6 0 14.8-23 16-24.2 3.4-3.2-7.1-2.4-11.5 1a80.7 80.7 0 0 0-13.3 16.1c-12.7 8.8-25.4 10.9-19.4 3.6 3.2-4 8.7-9.2 12.4-13.3 5.2-5.8 4.3-9.6-7.2-9.6-15.4 0-17 1.3-25.8 11.5-1.6 2-.7 6.7 1 5 10.4-10.3 10.1-9.5 24-9.5-2.3 2.4-6.3 4.8-13 13.3-6 7.6-2 13.7 6.5 13.7 4.7 0 11.7-2.2 18-6.7-.7 4 .9 6.8 7 6.8 7 0 15-4.2 21.6-8.8-.8 5 1.8 8.8 9.2 8.8 5.7 0 12.3-2.3 19.2-8.2 0 4.5 3.2 8.2 9.1 8.2 14.5 0 64.8-18.3 82.3-7.8Zm-106.8 1.1c-9.5 0 9.6-21.8 22-21.8 7.5 0-12.8 21.8-22 21.8Zm-7.5-33.7a98 98 0 0 0 14.7-11.6c2.8-2.9-9.5-1.6-12.5 1a122.2 122.2 0 0 0-11.5 11c-1.7 2.1 5.4 2 9.3-.4ZM92.4 65.3c-3.7 3.7-11.9 9.8-19 9.8-5.3 0 5.2-9.5 10.4-17.1 5-7.3 1-9.5-3.2-9.5-10.1 0-20 7.1-26.8 12.2 2-2.7 5.2-6.3 8.6-10.7 1.8-2.5-9.4-1.6-12.3 2.2l-3 4c-9.7 11.7-24.4 19.6-31.6 19.6-4 0-5.5-2.8-3-8C18.5 55 39.3 31 50.6 20.6c5.2-4.8-10.3-2.8-13.8.7C21 37.1 5.4 54.7.9 68.3c-2.4 7.7-.2 14.5 9.2 14.5 7.8 0 16.3-3.9 23.6-8.4L29 80.8c-2 2.8 8.3 1.8 10.5-1 8.3-10.5 28-23.4 33.5-23.4 5 0-12.2 12.9-12 20.8.1 10.4 24.2 4 32.4-6.7 1.2-1.7.2-6.3-1-5.2Z" data-name="Calque 1"/></g></svg>
