<svg xmlns="http://www.w3.org/2000/svg" xmlns:xlink="http://www.w3.org/1999/xlink" width="540" height="218.8"><defs><path id="a" d="M0 219h539.3V.2H0Z"/></defs><g fill="none" fill-rule="evenodd"><path fill="#000" d="M73.4 88.7h22V0h-22Z"/><g transform="translate(-68.9 -.2)"><path fill="#000" d="M201.4 31c2-2 4.1-4.4 7.6-6.3a25 25 0 0 1 22.7-.3c6.8 3.7 8.6 9.6 8.6 19.7V89H221V52c0-5.9-.2-8-1-9.7-1.4-3.5-4.8-5-8.6-5-10.2 0-10.2 8.1-10.2 16.2V89H182V23.5h19.4v7.4zm58.8 35.9c5.3 5.1 12.6 9 20 9 4.6 0 11.7-1.6 11.7-6.5 0-2.2-1.4-3-2.5-3.7-3-1.5-7.5-1.9-11.3-2.5-3-.5-6-1.2-8.9-2-4-1.2-8-2.8-10.9-5.7a17.6 17.6 0 0 1-4.9-12.2c0-10.8 9.3-22 27.7-22 15.6 0 25 6.2 29.6 9.4L299.9 42a30.5 30.5 0 0 0-17.9-6.4c-7.6 0-9.4 3-9.4 4.9 0 3.8 4.2 4.5 10.6 5.6 13.2 2.4 28.5 6 28.5 21.5 0 15.4-15.5 23-31 23A44.7 44.7 0 0 1 248.2 78zm109.7-.3c-3 5-6 10-16.6 10-10.5 0-15.1-8.3-15-16.5h46.9c-.3-7.4-.8-20.2-9.3-29.3a32 32 0 0 0-24.5-9.5c-25.9 0-32.8 20.3-32.8 36.2 0 21.5 12.7 33.8 33.2 33.8a36 36 0 0 0 33.5-19zM338.4 48c.7-2.8 1.3-5.7 4-8.6 1.8-2 5-4.3 9.7-4.3 3.4 0 7 1.3 9.4 3.7 2.8 2.8 3.3 6.5 3.7 9.2h-26.8zm76.4-17c4.3-3.7 9-7.5 19-8.5v17.2l-6.4 1c-9.3 1.6-12 4.7-12 13V89H396V23.2h18.7V31zm47.6 0c2.3-2.7 7.4-9.2 18.8-9.2 10.8 0 14.7 4 18.2 7.7 3.8-3.2 9-7.7 19.6-7.7 10.8 0 16.3 5.4 18.3 9.4 1.6 3.6 1.7 8 1.7 15V89h-19V54.6c0-3.8 0-8.7-.8-11.2-1.7-5.5-7-5.9-8.4-5.9-2 0-4.5.5-6.4 2-3.6 3-3.6 6.7-3.6 13.8V89h-19V50.2c0-3-.2-6.8-2-9.3a9.7 9.7 0 0 0-7.6-3.4c-1.5 0-3.5.4-5.3 1.5-4.3 2.9-4.4 8.1-4.4 12.6v37.3h-19V23.5h19V31z"/><path fill="#e74011" d="M156.7 106.3A14.9 14.9 0 0 0 139 124c1.2 5.5 5.6 9.9 11 11a14.9 14.9 0 0 0 17.9-17.8 14.7 14.7 0 0 0-11-11"/><mask id="b" fill="#fff"><use xlink:href="#a" width="100%" height="100%"/></mask><path fill="#000" d="M142 187.8V169h4.5v14.8h7v3.9zm18.8-5.8a3 3 0 0 0-.4.2c-1 .5-1.3 1-1.3 1.6l.2.6c.1.3.5.8 1.4.8.7 0 1.3-.4 1.5-.6 1.1-.8 1.2-2.1 1.2-3.4zm3 5.8v-1.3l-.9.6a5.6 5.6 0 0 1-3.2 1c-2.4 0-3.6-1.3-4-2.2a4.5 4.5 0 0 1-.4-2c0-2.4 2.1-3.6 2.7-3.9 1-.5 2.8-.8 5.4-1.3v-.8c0-.5-.1-1.6-1.5-1.6-1.2 0-1.7.5-2 1l-.1.6h-4c0-.6.1-1.8 1.1-2.8 1.1-1.1 2.6-1.3 3-1.4l1.8-.1c1.8 0 4.4.4 5.3 2.4l.2 1.6v8c0 1.2.1 1.7.4 2.2h-3.8zm25-2.2c-1.2 1.9-3.7 2.6-5.7 2.6-.8 0-3-.2-5-1.4l-1.5-1.3 2.5-2.4.7.7c.9.7 2 1.2 3.2 1.2h1c.6-.2 1.4-.6 1.4-1.3 0-1-1.3-1-2.7-1.3-2.8-.5-4-1.2-4.8-2.5a4 4 0 0 1-.4-1.8c0-.3.1-1.2.6-2 .6-1.2 2.1-2.6 5-2.6a9.8 9.8 0 0 1 6 2l-2.4 2.4-.7-.5c-.7-.5-1.8-.9-2.7-.9l-1.2.2c-.5.3-.6.6-.6.9 0 .2.1.5.3.6.4.3 1.4.4 1.8.5l1.8.4c2.1.5 4 1.6 4 4.2 0 1.1-.4 2-.7 2.3m13.8.3a6.5 6.5 0 0 1-5 2.3c-.6 0-1.8 0-3.1-.7-2.5-1.3-3.5-3.8-3.5-6.5 0-.7 0-2 .6-3.5 1.5-3.7 4.9-4 6-4a6.4 6.4 0 0 1 5.8 3.4l-3 1.7s-.1-.5-.4-.8c-.2-.3-1-1.1-2.1-1.1-.3 0-.9 0-1.5.4-1.3 1.1-1.4 3.5-1.4 3.7 0 1.2.4 2.8 1.3 3.5.3.2.8.7 1.7.7 1.3 0 2-1 2.2-1.3l.4-.8 3 1.6-1 1.4m3.1 1.9h4V174h-4zm0-15.6h4v-3.1h-4zm14.6 4.5c-.5-.2-1-.2-1.2-.2a2.7 2.7 0 0 0-2.5 1.6l-.3 1h5.5c0-.4-.1-1.8-1.5-2.4zm-4 5v.8c.4 1.7 1.5 2.7 3 2.7.3 0 .8 0 1.4-.3 1.3-.5 1.9-1.9 2-2.2l3 1.6-1 1.5a7.3 7.3 0 0 1-5.6 2.5 8 8 0 0 1-2.5-.4c-3-1-4.3-3.6-4.3-6.8 0-.8 0-3.4 1.7-5.4.8-1 2.2-2.2 5.2-2.2.9 0 3.5.1 5.2 2.6 1.5 2.1 1.5 5 1.5 5.6zm20 6V180l-.2-2c-.2-.5-.7-1.1-1.8-1.1-.2 0-.9 0-1.4.4-.6.5-.7 1.4-.7 3v7.5h-4V174h4v1.2c.2-.2.3-.4.7-.6.4-.4 1.5-1 3.1-1 .3 0 1.5 0 2.4.6 1.6.9 1.8 2.4 1.8 4.1v9.5h-4zm18.2-1.8a6.5 6.5 0 0 1-5 2.3c-.6 0-1.8 0-3.2-.7-2.5-1.3-3.5-3.8-3.5-6.5 0-.7 0-2 .7-3.5 1.5-3.7 4.8-4 6-4a6.4 6.4 0 0 1 5.8 3.4l-3 1.7-.4-.8c-.3-.3-1-1.1-2.2-1.1-.3 0-.8 0-1.4.4-1.4 1.1-1.4 3.5-1.4 3.7 0 1.2.3 2.8 1.2 3.5.3.2.9.7 1.7.7 1.3 0 2-1 2.2-1.3.2-.2.3-.3.4-.8l3 1.6-1 1.4m10.3-9.2-1.2-.2a2.7 2.7 0 0 0-2.5 1.6l-.3 1h5.4c0-.4 0-1.8-1.4-2.4zm-4 5v.8c.3 1.7 1.4 2.7 3 2.7.2 0 .8 0 1.3-.3 1.3-.5 2-1.9 2.1-2.2l3 1.6-1.1 1.5a7.3 7.3 0 0 1-5.6 2.5 8 8 0 0 1-2.4-.4c-3-1-4.4-3.6-4.4-6.8 0-.8 0-3.4 1.7-5.4.9-1 2.3-2.2 5.2-2.2.9 0 3.6.1 5.2 2.6 1.6 2.1 1.5 5 1.5 5.6zm27.6-4.3c-.3-.4-.7-.7-1.2-.8h-.5c-1.5 0-2.9 1.3-2.9 4.3 0 .3 0 2 .7 3.1.2.3.5.6.8.7.2.2.6.4 1.3.4 1.3 0 1.9-1 2-1.4.4-.6.7-1.4.7-2.9 0-.4.1-2.2-.9-3.4m3.5 8.2a5.7 5.7 0 0 1-2.1 2c-.4.2-1.2.5-2.5.5-1.4 0-2.1-.5-3.3-1.2v5.7h-4V174h3.5v1.3l.6-.6c.5-.4 1.6-1 3.2-1 .8 0 2.6 0 4 1.7a8 8 0 0 1 1.8 5.5 9 9 0 0 1-1.2 4.7m11.8-8.3c-.4-.3-.9-.5-2-.5-.1 0-.9 0-1.4.4-.8.4-1.6 1.6-1.6 3.6 0 1.4.4 2.4.7 2.8a3 3 0 0 0 2.6 1.4c2.1 0 3.1-2 3.1-4s-.6-3.1-1.4-3.7m3 9.3c-.7.7-2.3 1.6-4.8 1.6-.7 0-3.4-.1-5.3-2-.8-.8-1.9-2.5-1.9-5.4 0-.7 0-3 1.6-4.9.9-1.1 2.7-2.6 6.1-2.3 1.6 0 3 .4 4.2 1.4a7.5 7.5 0 0 1 2.5 5.9c0 3.1-1.4 5-2.3 5.7m13 1.2v-1.3a6 6 0 0 1-.7.6c-.5.4-1.7 1-3.3 1-.3 0-1.8 0-2.8-.8-1.5-1.2-1.4-3.4-1.4-5.1V174h4v8.6c0 .8 0 1.5.7 2 .2 0 .6.3 1.2.3 1.2 0 2-.8 2-1.3.2-.3.2-.7.2-1V174h4v13.8h-4zm13.8-10.2-1.2.3c-1 .4-1.3 1-1.3 2.1v7.8H327V174h3.8v1.4c.4-.3.7-.7 1.6-1 1-.5 1.8-.5 2.3-.6v3.6zm10.8 10.2h4V169h-4zm12.4-5.8-.5.2c-1 .4-1.2 1-1.2 1.6l.2.6c.1.3.5.8 1.3.8s1.4-.4 1.6-.6c1.1-.8 1.2-2.1 1.2-3.4zm3 5.8v-1.3l-.9.6a5.6 5.6 0 0 1-3.3 1c-2.4 0-3.5-1.3-4-2.2a4.5 4.5 0 0 1-.4-2c0-2.4 2.2-3.6 2.8-3.9 1-.5 2.8-.8 5.3-1.3v-.8c0-.5 0-1.6-1.5-1.6-1.1 0-1.7.5-1.9 1l-.2.6h-4c.1-.6.2-1.8 1.2-2.8 1-1.1 2.5-1.3 3-1.4l1.7-.1c1.9 0 4.4.4 5.3 2.4.2.4.3.8.3 1.6v8c0 1.2 0 1.7.4 2.2h-3.9zm25-2.2c-1.3 1.8-3.7 2.6-5.8 2.6-.7 0-3-.2-4.9-1.4-.8-.5-1.3-1-1.6-1.3l2.5-2.4.8.7c.8.7 2 1.2 3.2 1.2h1c.5-.2 1.3-.6 1.3-1.3 0-1-1.2-1-2.6-1.3-2.8-.5-4.1-1.2-4.8-2.5a4 4 0 0 1-.4-1.8c0-.3 0-1.2.6-2 .6-1.2 2-2.6 5-2.6a9.7 9.7 0 0 1 6 2l-2.4 2.4a6.3 6.3 0 0 0-.7-.5c-.8-.5-1.8-.9-2.7-.9l-1.2.2c-.5.3-.7.6-.7.9 0 .2.2.5.4.6.4.3 1.4.4 1.8.5l1.8.4c2.1.5 4 1.6 4 4.2 0 1.1-.5 2-.7 2.3m8-3.6a3 3 0 0 0-.5.2c-1 .4-1.2 1-1.2 1.6l.1.6c.2.3.6.8 1.4.8.7 0 1.3-.4 1.5-.6 1.2-.8 1.2-2.1 1.2-3.4zm2.9 5.8v-1.3l-.8.6a5.6 5.6 0 0 1-3.3 1c-2.4 0-3.5-1.3-4-2.2a4.5 4.5 0 0 1-.4-2c0-2.4 2.2-3.6 2.7-3.9 1-.5 2.9-.8 5.4-1.3v-.8c0-.5 0-1.6-1.5-1.6-1.2 0-1.7.5-2 1v.6h-4c0-.6 0-1.8 1-2.8 1.1-1.1 2.6-1.3 3-1.4l1.8-.1c1.9 0 4.4.4 5.3 2.4.2.4.3.8.3 1.6v8c0 1.2 0 1.7.4 2.2h-3.9zm15.1 0V180l-.1-2c-.2-.5-.7-1.1-1.8-1.1-.2 0-.9 0-1.4.4-.6.5-.7 1.4-.7 3v7.5h-4V174h4v1.2c.2-.2.3-.4.7-.6.5-.4 1.5-1 3.1-1 .3 0 1.5 0 2.4.6 1.7.9 1.8 2.4 1.8 4.1v9.5h-4zm12-11V184.1c.2.5.9.5 1 .5h1.3v3c-.2.1-1.2.3-2 .3h-.9c-.3 0-1.5 0-2.4-.9-1-1-1-2.3-1-3.6v-6.6h-2v-2.5h2v-4.4h3.9v4.4h2.6v2.5h-2.6zm11.3-4.5h-2.6l1.9-3.6h4.7zm.4 4.4c-.5-.2-1-.2-1.2-.2a2.7 2.7 0 0 0-2.5 1.6l-.3 1h5.5c0-.4-.1-1.8-1.4-2.4zm-4 5v.8c.4 1.7 1.5 2.7 3 2.7.3 0 .8 0 1.4-.3 1.3-.5 1.9-1.9 2-2.2l3 1.6-1 1.6a7.3 7.3 0 0 1-5.6 2.4 8 8 0 0 1-2.4-.4c-3-1-4.4-3.6-4.4-6.8 0-.8 0-3.4 1.7-5.4.8-.9 2.3-2.2 5.2-2.2.9 0 3.6.2 5.2 2.6 1.5 2.1 1.5 5 1.5 5.6h-9.6zm-167 21.7v4h8.7v3.5h-8.7v7.6h-4.5v-18.7h13.9v3.6zm18 5c-.2 0-.8 0-1.3.2-1 .4-1.2 1-1.2 2.1v7.8h-4v-13.8h3.9v1.4c.3-.3.7-.7 1.5-1 1.1-.5 1.9-.5 2.3-.6v3.6zm11.3-.4a3 3 0 0 0-2-.5c-.2 0-1 0-1.5.4-.7.4-1.6 1.6-1.6 3.6 0 1.4.5 2.4.7 2.8a3 3 0 0 0 2.6 1.4c2.2 0 3.2-1.9 3.2-4 0-2-.7-3.1-1.4-3.7m3 9.3c-.8.7-2.3 1.6-4.8 1.6-.7 0-3.5 0-5.3-2-.8-.7-2-2.4-2-5.3 0-.8.1-3 1.6-5 1-1.1 2.8-2.5 6.2-2.3 1.6 0 3 .4 4.2 1.5a7.5 7.5 0 0 1 2.5 5.8c0 3.1-1.5 5-2.4 5.7m20.5 1.2v-7.3c0-1.4 0-2.2-.3-2.8-.3-.5-1-.8-1.5-.8a2 2 0 0 0-1.8 1c-.3.6-.2 1.1-.2 2.4v7.5h-4v-8.2c0-1.3-.1-2-.7-2.3a2 2 0 0 0-1.2-.3c-.2 0-.7 0-1.1.3-.8.6-.9 1.7-.9 2.6v8h-3.9v-14h4v1.5l.6-.7c.5-.4 1.5-1 3.1-1 .3 0 1.7 0 2.7.6.4.2.7.6 1 1l1-.8c.5-.3 1.6-.9 3-.9.5 0 2.4 0 3.5 1.5.6.8.7 1.7.7 3.7v9h-4zm25.3-2.2c-1.1 1.9-3.6 2.6-5.6 2.6-.8 0-3-.2-5-1.4l-1.5-1.3 2.5-2.3.7.6c.9.7 2 1.3 3.2 1.3l1-.2c.6 0 1.4-.4 1.4-1.2 0-1-1.2-1-2.7-1.3-2.8-.5-4-1.1-4.8-2.5a4 4 0 0 1-.4-1.7c0-.4.1-1.2.6-2.1.6-1.2 2.1-2.6 5.1-2.6a9.8 9.8 0 0 1 6 2l-2.5 2.4a6.3 6.3 0 0 0-.7-.5c-.7-.5-1.8-.9-2.6-.9-.6 0-1.1.2-1.3.3-.5.2-.6.5-.6.8 0 .2.1.5.3.6.4.3 1.4.4 1.8.5l1.8.4c2.1.5 4 1.6 4 4.2 0 1.2-.4 2-.6 2.3m13.8.3a6.5 6.5 0 0 1-5 2.3c-.7 0-1.9 0-3.2-.7-2.5-1.3-3.5-3.8-3.5-6.5 0-.7 0-2 .6-3.5 1.6-3.6 4.9-4 6-4a6.4 6.4 0 0 1 5.8 3.4l-3 1.7s-.1-.5-.4-.8c-.2-.3-1-1.1-2.1-1.1-.3 0-.9 0-1.5.5-1.3 1-1.4 3.4-1.4 3.6 0 1.2.4 2.8 1.3 3.5.3.3.8.7 1.7.7 1.3 0 2-.9 2.2-1.2l.4-.9 3 1.6-1 1.4m3.1 2h4v-14h-4zm0-15.6h4v-3.2h-4zm14.6 4.4c-.5-.2-1-.2-1.2-.2a2.7 2.7 0 0 0-2.5 1.6l-.3 1.1h5.5c0-.5-.1-1.9-1.5-2.5zm-4 5v.9c.4 1.6 1.5 2.6 3 2.6.3 0 .8 0 1.4-.3 1.3-.4 1.9-1.8 2-2.2l3 1.6-1 1.6a7.3 7.3 0 0 1-5.6 2.4 8 8 0 0 1-2.5-.4c-3-1-4.3-3.6-4.3-6.8 0-.8 0-3.4 1.7-5.4.8-.9 2.2-2.2 5.2-2.2.9 0 3.5.2 5.2 2.6 1.5 2.1 1.5 5 1.5 5.6zm20 6.1v-7.8l-.2-2c-.2-.5-.7-1.1-1.8-1.1-.2 0-.9 0-1.4.4-.6.5-.7 1.4-.7 3v7.5h-4v-13.8h4v1.2l.7-.6c.5-.4 1.5-1 3.1-1 .3 0 1.5 0 2.4.6 1.7.9 1.8 2.4 1.8 4.1v9.5h-4zm18.2-2a6.5 6.5 0 0 1-5 2.4c-.6 0-1.8 0-3.2-.7-2.5-1.3-3.5-3.8-3.5-6.5 0-.7 0-2 .7-3.5 1.5-3.6 4.8-4 6-4a6.4 6.4 0 0 1 5.8 3.4l-3 1.7a4.6 4.6 0 0 0-.4-.8c-.2-.3-1-1.1-2.2-1.1-.3 0-.8 0-1.4.5-1.4 1-1.4 3.4-1.4 3.6 0 1.2.3 2.8 1.2 3.5.3.3.9.7 1.7.7 1.3 0 2-.9 2.2-1.2.2-.3.3-.4.4-.9l3 1.6-.9 1.4m10.2-9.2c-.5-.2-1-.2-1.2-.2a2.7 2.7 0 0 0-2.5 1.7 4.8 4.8 0 0 0-.3 1h5.5c0-.5-.2-1.9-1.5-2.5zm-4 5v.9c.3 1.6 1.4 2.6 3 2.6.2 0 .8 0 1.3-.3 1.3-.4 2-1.8 2.1-2.2l3 1.6-1.2 1.6a7.3 7.3 0 0 1-5.5 2.4 8 8 0 0 1-2.4-.4c-3-1-4.4-3.6-4.4-6.7 0-.9 0-3.5 1.7-5.5.9-.9 2.3-2.2 5.2-2.2.9 0 3.6.2 5.2 2.6 1.6 2.1 1.5 5 1.5 5.6zm23.7-4.9v6.2l.1 1.1c.3.5.9.5 1 .5h1.3v3.1l-2 .2h-.9c-.3 0-1.5 0-2.4-.9-1-.9-1-2.3-1-3.6v-6.6h-2V205h2v-4.3h4v4.3h2.5v2.5H437zm12.8.5a3 3 0 0 0-2-.5c-.1 0-.9 0-1.4.4-.8.4-1.6 1.6-1.6 3.7 0 1.3.4 2.3.7 2.7a3 3 0 0 0 2.5 1.4c2.2 0 3.2-1.9 3.2-4 0-2-.6-3.1-1.4-3.7m3 9.3c-.7.7-2.3 1.6-4.8 1.6-.7 0-3.4 0-5.3-2-.8-.7-1.9-2.4-1.9-5.3 0-.8 0-3 1.6-5 .9-1.1 2.7-2.5 6.1-2.3 1.6 0 3 .4 4.2 1.5a7.5 7.5 0 0 1 2.5 5.8c0 3.1-1.4 5-2.4 5.7m20.6 1.2v-7.2c0-1 0-2.5-1-3.2-.2-.2-.6-.3-1-.3-.2 0-.7 0-1.2.4-.9.6-1 1.5-1 3.4v7h-4v-18.8h4v6.3c.2 0 .5-.4.8-.7 1.3-1 2.5-1 3-1 1.9 0 3 .8 3.3 1.3l.7 1.1c.2.6.3 1.3.3 2.6v9.1zm14.5-11c-.5-.3-1-.3-1.2-.3a2.7 2.7 0 0 0-2.5 1.7l-.3 1h5.5c0-.5-.1-1.9-1.5-2.5zm-4 5v.8c.4 1.6 1.5 2.6 3 2.6.3 0 .8 0 1.3-.3 1.4-.4 2-1.8 2.2-2.2l3 1.6-1.2 1.6a7.3 7.3 0 0 1-5.5 2.4 8 8 0 0 1-2.5-.4c-3-1-4.3-3.6-4.3-6.7 0-.9 0-3.5 1.7-5.5.8-.9 2.2-2.2 5.2-2.2.9 0 3.5.2 5.2 2.6 1.5 2.1 1.5 5 1.5 5.6zm16.8.3a3 3 0 0 0-.4.1c-1 .5-1.3 1-1.3 1.6 0 0 0 .4.2.6.1.3.5.8 1.4.8.7 0 1.3-.4 1.5-.6 1.1-.8 1.2-2.1 1.2-3.4zm3 5.7v-1.2l-.9.5a5.7 5.7 0 0 1-3.2 1c-2.5 0-3.6-1.3-4-2.2-.3-.6-.4-1.3-.4-2 0-2.4 2.1-3.6 2.7-3.9 1-.4 2.8-.8 5.4-1.3v-.8c0-.4-.1-1.6-1.5-1.6-1.2 0-1.7.5-2 1l-.1.6h-4c0-.6.1-1.8 1.1-2.8 1.1-1 2.6-1.3 3-1.4h1.8c1.8 0 4.4.4 5.3 2.3.1.4.3.8.3 1.6v8c0 1.3 0 1.7.3 2.2zm7 0h4v-18.7h-4zm12-11V214.8c.3.5 1 .5 1 .5h1.4v3.1l-2.1.2h-.8c-.4 0-1.6 0-2.5-.9-1-.9-1-2.3-1-3.6v-6.6h-1.9V205h2v-4.3h3.9v4.3h2.6v2.5h-2.6zm12.8 11v-7.2c0-1 0-2.5-1-3.2-.3-.2-.7-.3-1-.3-.3 0-.8 0-1.2.4-.9.6-1 1.5-1 3.4v7h-4v-18.8h4v6.3l.8-.7c1.2-1 2.5-1 3-1 1.8 0 2.9.8 3.3 1.3.3.3.5.7.6 1.1.3.6.4 1.3.4 2.6v9.1z" mask="url(#b)"/><path fill="#e74011" d="M458.2 187.8h81v-1.2h-81zM142 218.5h98.4v-1.2H142z" mask="url(#b)"/></g></g></svg>
