<svg xmlns="http://www.w3.org/2000/svg" width="600" height="600" data-name="Calque 1"><path fill="#005892" d="M0 0h600v600H0z"/><rect width="159" height="159" x="220.5" y="111.6" fill="#fff" rx="12.8" ry="12.8"/><path fill="#005891" d="m334.2 133.7 17.4 18.2-24.3 6z"/><path fill="#005891" d="M358 191a57.6 57.6 0 0 0-10.2-32.7l-5.2 2A56 56 0 0 1 353 191a53.2 53.2 0 0 1-45.6 52.3 210.2 210.2 0 0 1-1.8-104.8 55.4 55.4 0 0 1 19.8 6l1.3-4.9a57.6 57.6 0 0 0-19.8-6.1 150.7 150.7 0 0 1 8.2-22h-7.6a164 164 0 0 0-7.6 21.6 58 58 0 0 0 0 115.8h2c2 7.1 4.2 14.3 7 21.7h7c-2.8-7.6-5.3-15.2-7.5-22.3a58 58 0 0 0 49.6-57.3z"/><path fill="#fff" d="M298.6 130.4h-7"/><g fill="#fff"><path d="M123.8 315.2h21.3l15.2 44 13.6-44h22l8.4 76.7h-22l-3.8-38.7-10.7 38.7H152l-11.4-38.7-4.6 38.7h-22zM268.1 373h-34.2v-10.7h25.8v-16h-26.5V335H268v-19.7h-56.2v76.7h56.2zM404 373h-34.9v-10.7h26.6v-16h-27.3V335H404v-19.7h-56.3v76.7h56.3zM297 391.9h21.2v-57h19v-19.7H278v19.7h19zM448.1 314.7a38 38 0 1 0 38 38 38 38 0 0 0-38-38zm0 57.5a19.4 19.4 0 1 1 19.4-19.5 19.4 19.4 0 0 1-19.4 19.5zM135.2 464h23.5v-14.4h-23.5v-15.2h30.4v-19h-51.7v73h21.3zM213.6 458.8s11-1.2 11-21.2a19.5 19.5 0 0 0-19-21.9h-34.8v72.7h17.7v-26.8h6.5l11.2 26.8h20.9zm-11.9-11.5h-13.5v-17.5h13.5a9.5 9.5 0 0 1 0 17.5zM274 415.7h-16.2l-27.4 72.7H251l5.4-13.6h20l4.5 13.6h19.8zM258.8 461l7-19.6 7 19.6zM321.3 449.6l26.5 38.8h16.8v-73h-19V458l-24.3-42.6H303v73h18.3zM418.3 465a18.4 18.4 0 1 1-1-26.4l11.8-13.3a36 36 0 1 0 0 53.8zM486 470.1h-33.3v-9.8h25V445h-25v-10.7H486v-19h-54v73h54z"/></g></svg>
