<svg xmlns="http://www.w3.org/2000/svg" xml:space="preserve" width="351.5" height="258.8" viewBox="35.2 31.5 351.5 258.8"><path d="M384.2 282.1a6 6 0 0 1-6 6.3c-3.4 0-6.1-2.5-6.1-6.3a6 6 0 0 1 6-6.3 6 6 0 0 1 6 6.3zm2.4 0c0-5.2-4-8.2-8.5-8.2s-8.5 3-8.5 8.2c0 5.2 4 8.2 8.5 8.2s8.5-3 8.5-8.2m-9.9.7h1l2 3.7h2.4l-2.4-3.9c1.2 0 2.2-.6 2.2-2.2 0-2-1.4-2.7-3.7-2.7h-3.4v8.8h2v-3.7m0-1.5v-2.1h1.3c.7 0 1.8 0 1.8 1s-.6 1.1-1.4 1.1h-1.8M329.4 237l10.6 29h-21.5l11-29zm-11.3-11.3-24.5 62H311l3.8-11h29l3.6 11H366l-24.6-62h-23.3zm-49 62h17.4v-62H269v62zm-121.5-62-14.6 49-14-49H100l20 62h25.2l20.1-62h-17.8zm70.7 13.5h7.5c11 0 18 4.9 18 17.6 0 12.7-7 17.6-18 17.6h-7.5v-35.2zm-17.4-13.5v62h28.4c15.1 0 20-2.6 25.4-8.2 3.8-4 6.2-12.6 6.2-22.1 0-8.7-2-16.5-5.7-21.3-6.5-8.7-15.8-10.4-29.7-10.4h-24.6zm-165.7 0v62h17.6v-47.1h13.7c4.5 0 7.8 1 10 3.4 2.7 3 3.8 7.7 3.8 16.4v27.2h17.1v-34.2c0-24.5-15.6-27.8-30.8-27.8H35.2zm137.6 0v62h17.5v-62h-17.5z"/><path fill="#77B900" d="M82.2 102.4s22.5-33.2 67.4-36.6v-12c-49.7 4-92.8 46-92.8 46s24.4 70.6 92.8 77.1v-12.8c-50.2-6.3-67.4-61.7-67.4-61.7zm67.4 36.2v11.8c-38-6.8-48.5-46.3-48.5-46.3s18.3-20.2 48.5-23.4v12.8c-15.9-1.9-28.3 13-28.3 13s7 25 28.3 32.1m0-107v22.1l4.4-.2c56.6-2 93.5 46.4 93.5 46.4S205 151.4 161 151.4c-4 0-7.8-.4-11.4-1V164c3 .4 6.2.6 9.5.6 41 0 70.8-21 99.5-45.8 4.8 3.9 24.3 13.1 28.3 17.2-27.3 22.9-91 41.3-127.1 41.3-3.5 0-6.9-.2-10.2-.5v19.3h156V31.5h-156zm0 49V65.9l4.4-.2c40.7-1.3 67.4 35 67.4 35s-28.8 40-59.7 40c-4.5 0-8.5-.8-12-2v-45c15.8 1.8 19 8.8 28.5 24.7l21.2-17.9s-15.5-20.2-41.5-20.2c-2.9 0-5.6.2-8.3.5"/></svg>
