<svg xmlns="http://www.w3.org/2000/svg" width="313.6" height="72.7" viewBox="0 0 83 19.2"><defs><clipPath id="a" clipPathUnits="userSpaceOnUse"><path d="M0 76.5V156h595.3V76.5"/></clipPath><clipPath id="b" clipPathUnits="userSpaceOnUse"><path d="M148.8 6h297.7v210.5H148.8"/></clipPath></defs><g clip-path="url(#a)" transform="matrix(.3528 0 0 -.3528 -63.5 48.4)"><g clip-path="url(#b)"><path d="M243.9 120.2c-5.8 0-10.3 3.2-10.3 7.2s4.5 7.1 10.3 7.1c5.8 0 10.3-3.1 10.3-7.1 0-4-4.5-7.2-10.3-7.2m0 16.2c-8.2 0-13.1-4.6-13.1-9s4.9-9 13-9c8.3 0 13.2 4.6 13.2 9s-5 9-13.1 9M284.2 122.8l-17.8 13.6v-17.6h2.7v13l17.7-13.5V136h-2.6M300 120.6v6h8.1v1.8h-8v5.8h9v1.8h-11.7v-17.2h12.9v1.8M329.7 130.7c0-1.8-2-3.7-6.5-3.7H322.3v7.2h1c4.2 0 6.4-1.2 6.4-3.5m2.7-.2c0 3.6-3.2 5.5-9.7 5.5h-3v-17.2h2.6v6.8l7.8-6.8h3.8l-8.2 6.6c3.9.5 6.7 2.6 6.7 5M355.7 127h-7.5l3.7 5.8 3.8-5.8m-3.8 9.5-12.2-17.7h3l4.3 6.4h10l4.4-6.4h3"/><path fill="#2f63b7" d="M368.2 112H226.8l-1.4-2h144.2"/><path fill="#2f63b7" d="M414.2 92a471 471 0 0 1-233.3 0h-.1l.5-2h.1a469 469 0 0 0 232.3 0h.1l.5 2"/><path fill="#404040" d="M233 84h-.8v5.4h-1.4v.6h3.6v-.6H233M240 87.6V90h.7v-6h-.7v3h-3v-3h-.7v6h.6v-2.4M243.1 90h3.1v-.6h-2.4v-1.8h2.4V87h-2.4v-2.4h2.4v-.7h-3.1M253 89.4v-1.8h2.3V87H253v-3h-.7v6h3.7v-.6M258.1 87.2h.2c.8 0 1.6.2 1.6 1.1 0 1-.8 1-1.6 1h-.2zm0-3.3h-.7V90h1c1 0 2.1-.3 2.1-1.7 0-.9-.5-1.5-1.5-1.6l2-2.8h-.9l-1.8 2.7h-.2M263 90h3v-.6h-2.4v-1.8h2.4V87h-2.4v-2.4h2.5v-.7h-3.2M268.2 90.3l4.7-5V90h.7v-6.3l-4.8 5v-4.8h-.6M280.6 88.7c-.5.5-1.2.8-1.9.8a2.5 2.5 0 0 1 0-5c.7 0 1.4.3 1.9.8v-.9a3.1 3.1 0 0 0-5 2.6c0 1.7 1.4 3.1 3.2 3.1a3 3 0 0 0 1.8-.6M286.7 87.6V90h.6v-6h-.6v3h-3.1v-3h-.7v6h.7v-2.4M294.6 88.7l-1-2.4h2zm-1.3-3-.7-1.8h-.7l2.8 6.4 2.7-6.4h-.8l-.7 1.8M299.2 90h3.1v-.6h-2.5v-1.8h2.4V87h-2.4v-2.4h2.5v-.7h-3.1M305.5 87.2h.2c.8 0 1.6.2 1.6 1.1 0 1-.8 1-1.6 1h-.2zm0-3.3h-.7V90h1c1 0 2.1-.3 2.1-1.7 0-.9-.6-1.5-1.5-1.6l2-2.8h-.9l-1.8 2.7h-.2M310.2 87c0-1.4 1.1-2.5 2.5-2.5a2.5 2.5 0 0 1 0 5 2.5 2.5 0 0 1-2.5-2.5m5.7 0c0-1.8-1.5-3.2-3.2-3.2a3.2 3.2 0 0 0-3.2 3.2 3.2 3.2 0 0 0 6.4 0M320.7 88.8c-.3.5-.6.7-1 .7-.6 0-1-.4-1-1 0-.5.4-.7.9-.9l.4-.2c.8-.3 1.4-.7 1.4-1.7s-.8-1.9-1.9-1.9c-1 0-1.7.7-1.9 1.6l.7.2c0-.6.5-1.1 1.2-1.1.6 0 1.2.5 1.2 1.2s-.5 1-1 1.2l-.4.1c-.8.3-1.4.7-1.4 1.6 0 1 .8 1.5 1.7 1.5.7 0 1.3-.3 1.6-1M324.2 87.2h.5c.7 0 1.3.3 1.3 1.1 0 1-.8 1-1.5 1h-.3zm0-3.3h-.7V90h1c.6 0 1.1 0 1.5-.3.5-.3.7-.8.7-1.4 0-.5-.2-1-.6-1.3-.4-.3-.9-.4-1.4-.4h-.5M330.3 88.7l-1-2.4h2zm-1.3-3-.8-1.8h-.7l2.8 6.4L333 84h-.7l-.7 1.8M339.2 88.7c-.5.5-1.1.8-1.8.8a2.5 2.5 0 0 1 0-5c.7 0 1.3.3 1.8.8v-.9a3.1 3.1 0 0 0-5 2.6c0 1.7 1.5 3.1 3.2 3.1a3 3 0 0 0 1.8-.6M341.5 90h3.1v-.6h-2.4v-1.8h2.4V87h-2.4v-2.4h2.4v-.7h-3.1M350.8 84.6h2.5v-.7H350V90h.7M356.7 88.7l-1-2.4h2zm-1.3-3-.7-1.8h-.8l2.8 6.4 2.8-6.4h-.8l-.7 1.8M361.5 84.6h.6c.8 0 1.6.2 1.6 1 0 1-1 1.2-1.7 1.2h-.5zm0 2.7h.2c.8 0 1.4.1 1.4 1 0 1-.6 1-1.4 1h-.2zm-.7 2.7h1c1 0 2-.4 2-1.6 0-.5-.2-1-.6-1.2.7-.2 1.2-.8 1.2-1.6 0-1.2-1-1.7-2.2-1.7h-1.4"/></g></g></svg>
