<svg xmlns="http://www.w3.org/2000/svg" width="299.2" height="81.1" viewBox="0 0 79.2 21.5"><defs><clipPath id="a" clipPathUnits="userSpaceOnUse"><path d="M1087.6 34.7h123.6v33.6h-123.6z"/></clipPath><clipPath id="b" clipPathUnits="userSpaceOnUse"><path d="M1087.6 34.7h123.6v33.6h-123.6z"/></clipPath></defs><g clip-path="url(#a)" transform="matrix(.6403 0 0 -.6403 -696.4 43.7)"><path d="M1106.7 60.4V51c4.5 0 7.4 4.5 7.4 9 0 2.4-1 5.8-4 5.8-2.7 0-3.4-3.2-3.4-5.4"/><path d="M1114.6 64.8c1.4-2 2.5-6 .4-10.1-2.5-5.1-5.6-6-8.1-6.8V34.7a16.8 16.8 0 0 1 7.7 30.1"/></g><g clip-path="url(#b)" transform="matrix(.6403 0 0 -.6403 -696.4 43.7)"><path d="M1101.8 48.3a40 40 0 0 0-12.4 7.2h5a30 30 0 0 1 7.4-4v7c0 1.5 0 5 4 7.7 1.6 1 3.4 1.1 5 .8a16.8 16.8 0 0 1-23.2-15.6c0-8.4 6.1-15.3 14.2-16.6zM1126.7 64h2.7V52h-2.7zM1133.4 52v12h2.6l5.4-8v8h2.5V52h-2.7l-5.3 7.9v-8ZM1146.5 56l2.6.1c.2-.8.5-1.3 1-1.7a3 3 0 0 1 1.9-.6c.8 0 1.5.2 2 .5.4.4.6.7.6 1.2 0 .3-.1.5-.3.7-.2.2-.5.4-1 .5l-2 .6c-1.5.3-2.5.7-3 1.2a3 3 0 0 0-1.3 2.4c0 .6.2 1.2.6 1.7.4.5.9 1 1.6 1.2.7.3 1.6.5 2.6.5 1.7 0 3-.4 3.7-1 .9-.7 1.3-1.6 1.4-2.7l-2.7-.1c-.1.6-.4 1-.7 1.3-.4.3-1 .4-1.7.4-.8 0-1.4-.1-1.8-.4a.9.9 0 0 1-.5-.7c0-.3.2-.6.4-.8.4-.2 1.2-.5 2.5-.8l2.9-.9c.6-.3 1-.7 1.4-1.2.4-.5.5-1.1.5-1.9 0-.7-.2-1.3-.6-2-.4-.5-1-1-1.8-1.3a8 8 0 0 0-2.8-.4 6 6 0 0 0-3.9 1c-.9.7-1.4 1.8-1.6 3.1M1162.3 52v10h-4v2h10.5v-2h-3.9V52ZM1170.9 64h2.6V52h-2.6zM1179.5 52v10h-4v2h10.5v-2h-3.8V52ZM1187.8 64h2.7v-8.5c.2-.5.5-.9.9-1.2a3 3 0 0 1 1.8-.4c.7 0 1.3.1 1.7.4.4.3.6.6.7 1V64h2.7v-6.3c0-1.4 0-2.5-.2-3-.1-.7-.4-1.2-.8-1.6a4 4 0 0 0-1.5-1c-.7-.2-1.5-.3-2.6-.3a8 8 0 0 0-2.8.4 4 4 0 0 0-1.6 1c-.3.4-.6.9-.7 1.4-.2.6-.3 1.7-.3 3ZM1204 52v10h-4v2h10.5v-2h-4V52ZM1129.4 46v-3.3h1.4l2.1.1.9.6c.2.3.3.6.3 1s-.2.8-.4 1c-.3.4-.7.5-1.1.6h-2Zm-2.7-10v12.1h4.3c1.6 0 2.7 0 3.2-.2.7-.1 1.3-.5 1.8-1.1.6-.6.8-1.4.8-2.4 0-.7-.1-1.3-.4-1.9-.3-.5-.7-.9-1.1-1.1a4 4 0 0 0-1.4-.6l-2.8-.2h-1.7v-4.5zM1144.6 40.8l-1.8 4.5-1.8-4.5Zm4.9-4.7h-3l-1 2.7h-5.3l-1.1-2.7h-2.9l5.2 12h2.8zM1149.8 40l2.6.2c.2-.8.5-1.4 1-1.7a3 3 0 0 1 2-.6c.8 0 1.4.2 1.8.5.5.3.7.7.7 1.2 0 .3 0 .5-.3.7-.2.2-.5.4-1 .5l-2 .5c-1.5.4-2.5.8-3 1.2a3 3 0 0 0-1.3 2.5c0 .6.2 1.2.6 1.7.4.5 1 1 1.6 1.2.8.3 1.6.4 2.6.4 1.7 0 3-.3 3.8-1 .8-.6 1.2-1.5 1.3-2.6l-2.7-.1c0 .6-.3 1-.7 1.3-.4.3-1 .4-1.7.4-.8 0-1.4-.1-1.8-.4a.9.9 0 0 1-.4-.8c0-.3.1-.5.4-.7.3-.3 1.1-.5 2.4-.8 1.3-.3 2.3-.6 2.9-.9.6-.3 1-.7 1.4-1.2.4-.5.6-1.2.6-2 0-.6-.3-1.3-.7-1.9-.4-.6-1-1-1.7-1.3a8 8 0 0 0-3-.5 6 6 0 0 0-3.8 1.1c-.8.7-1.4 1.7-1.6 3M1165.2 36v10h-3.9v2.1h10.5v-2h-4V36ZM1173.8 36v12.1h9.8v-2h-7.1v-2.7h6.6v-2h-6.6V38h7.3v-2ZM1186 48.1h2.7v-6.5l.1-2c.2-.5.4-1 .9-1.2a3 3 0 0 1 1.7-.5c.8 0 1.3.2 1.7.5.4.2.6.6.7 1l.1 2v6.7h2.7v-6.3c0-1.5 0-2.5-.2-3-.2-.7-.4-1.2-.8-1.6a4 4 0 0 0-1.6-1c-.6-.2-1.5-.3-2.5-.3a8 8 0 0 0-2.9.4 4 4 0 0 0-1.5 1c-.4.4-.6.9-.8 1.3l-.2 3ZM1202 43h2c1.3 0 2.1 0 2.4.2.3 0 .6.2.8.5l.2.9c0 .4 0 .7-.3 1-.3.2-.6.4-1 .4h-4Zm-2.6-7v12.1h5.6c1.4 0 2.4 0 3-.3a3 3 0 0 0 1.6-1.2c.4-.5.6-1.1.6-1.9a3 3 0 0 0-.9-2.2c-.6-.6-1.4-1-2.6-1.1.6-.3 1-.7 1.4-1 .4-.4.9-1 1.5-2l1.6-2.3h-3.1l-2 2.6c-.6 1-1.1 1.5-1.4 1.8a2 2 0 0 1-.8.5l-1.3.1h-.5v-5z"/></g></svg>
