<svg xmlns="http://www.w3.org/2000/svg" width="70" height="70"><defs><path id="a" d="M0 .4h69.6V70H0z"/></defs><g fill="none" fill-rule="evenodd"><path fill="#00ADDF" d="M69.6 35.2a34.8 34.8 0 1 1-69.6 0 34.8 34.8 0 0 1 69.6 0"/><path fill="#FEFEFE" d="M45.5 33.5c.4-2 2.3-3.5 4.5-3.5s4.2 1.5 4.5 3.5h-9Zm-23.7 0h-4.4v-7.6h4.4c2.2 0 3.9 1.7 3.9 3.8 0 2.1-1.7 3.8-3.9 3.8ZM50 27a7.6 7.6 0 0 0-7.6 6.5h-5.8v-5c0-.8-.7-1.5-1.5-1.5s-1.5.7-1.5 1.5v5h-6.3a6 6 0 0 0 1.3-3.8c0-3.7-3-6.7-6.8-6.7h-6c-.7 0-1.4.7-1.4 1.5v18.2c0 .8.6 1.4 1.5 1.4.8 0 1.5-.6 1.5-1.4v-6.3h5.5l5.2 7.1a1.5 1.5 0 0 0 2.1.3c.7-.4.8-1.4.4-2l-4-5.4h7v3.4c0 2.6 1.9 4.3 4.3 4.3h.9c.8 0 1.5-.7 1.5-1.5s-.7-1.5-1.5-1.5h-.9c-.7 0-1.3-.6-1.3-1.3v-3.4h5.7c0 4.4 3.5 7.7 7.7 7.7h5.6c.8 0 1.5-.7 1.5-1.5s-.6-1.5-1.5-1.5H50c-2.5 0-4.6-2-4.6-4.7H56c.9 0 1.6-.8 1.6-1.7 0-4.4-3.4-7.7-7.5-7.7Z"/></g></svg>
