<svg xmlns="http://www.w3.org/2000/svg" xml:space="preserve" id="Calque_1" x="0" y="0" version="1.1" viewBox="0 0 190.3 77"><style>.st0{fill:#263068}.st1{fill:#e6332a}</style><path d="M22.2 24.2h2.6v-5.6c0-.7-.6-1.3-1.3-1.3-.7 0-1.3.6-1.3 1.3v5.6zM16.8 24.2h2.6v-5.6c0-.7-.6-1.3-1.3-1.3-.7 0-1.3.6-1.3 1.3v5.6zM27.6 24.2h2.6v-5.6c0-.7-.6-1.3-1.3-1.3-.7 0-1.3.6-1.3 1.3v5.6zM24.1 3.6c1.7.3 2.3 1.8 2.3 2.8v2.2H28v1.2c4.1 1.9 7 6.2 7 10.6v3.9h9.4v-3.8C44.2 8.1 35.4.6 23.8.4l.3 3.2zM22.4 6.4v2.2h2.3V6.4c0-.6-.5-1.1-1.1-1.1-.7-.1-1.2.5-1.2 1.1" class="st0"/><path d="M25.2 30.3c-9.7-2.5-13.4-4.6-13.4-10.8 0-4.4 3-8.2 7.1-9.9v-1h1.6V6.5c0-1.1.7-2.6 2.4-2.8l.3-3.2C11.5.5 1.6 8.6 2.1 19.5c.5 12.2 14 15.7 21.2 17.2 5.7 1.2 19.4 4.4 22.8 14.1-.1 0 1.2-16-20.9-20.5" class="st0"/><path d="M22 47.3c9.8 3 12.3 6.6 12.3 11.8 0 7.9-6.1 11.1-13.8 11.1-7.3 0-13.6-3.4-17.8-7.8l-1.6 3.2c3.1 5.8 11.8 11.1 21.4 11.1 12.5.1 23.1-5.7 23.1-17.4 0-12.5-13.7-17.5-21.3-19.1-6-1.3-21-5.3-23.7-13.7 0 0-3 14.6 21.4 20.8" class="st0"/><path d="M59.7 31.3s1.7 1.6 3.9 1.6c1.2 0 2.2-.6 2.2-1.8 0-2.7-7.3-2.2-7.3-6.8 0-2.5 2.2-4.3 5.2-4.3s4.6 1.6 4.6 1.6l-1.2 2.2s-1.5-1.3-3.4-1.3c-1.3 0-2.3.7-2.3 1.8 0 2.6 7.3 2 7.3 6.7 0 2.4-1.9 4.3-5.1 4.3-3.4 0-5.3-2-5.3-2l1.4-2zM80.5 32.9c2.8 0 5.1-2.3 5.1-5.3a5 5 0 0 0-5.1-5.1 5 5 0 0 0-5.1 5.1c0 3.1 2.2 5.3 5.1 5.3m0-12.8c4.5 0 8 3.3 8 7.6 0 4.4-3.4 7.8-8 7.8-4.5 0-8-3.4-8-7.8 0-4.3 3.4-7.6 8-7.6M98.3 27.3c1.5 0 2.4-.9 2.4-2.3s-.6-2.3-2.8-2.3h-2.1v4.6h2.5zm-5.3-7h5c1.7 0 2.4.1 3.1.4 1.5.7 2.5 2.1 2.5 4.1 0 1.8-1 3.4-2.6 4.1l.5.7 3.2 5.5h-3.1l-3.1-5.5h-2.7v5.5H93V20.3zM114.5 32.8c1.4 0 2.2-.9 2.2-2.2 0-1.2-.8-2.1-2.2-2.1h-3v4.3h3zm-.3-6.4c1.2 0 1.9-.8 1.9-1.9 0-1.1-.7-1.8-2-1.8h-2.7v3.7h2.8zm-5.5-6.1h5.5c2.8 0 4.8 1.4 4.8 3.8 0 1.4-.7 2.6-1.9 3.2 1.7.5 2.5 2 2.5 3.5 0 3-2.5 4.3-5.3 4.3h-5.6V20.3zM131.2 32.9c2.8 0 5.1-2.3 5.1-5.3a5 5 0 0 0-5.1-5.1 5 5 0 0 0-5.1 5.1c0 3.1 2.3 5.3 5.1 5.3m0-12.8c4.5 0 8 3.3 8 7.6 0 4.4-3.4 7.8-8 7.8-4.5 0-8-3.4-8-7.8 0-4.3 3.5-7.6 8-7.6M144 20.3h2.8l5.9 8.6 1.3 2.3-.2-2.3v-8.6h2.8v14.8h-2.8l-5.9-8.5-1.3-2.3.2 2.3v8.5H144V20.3zM162.2 20.3h2.8l5.9 8.6 1.3 2.3-.2-2.3v-8.6h2.8v14.8H172l-5.9-8.5-1.3-2.3.2 2.3v8.5h-2.8V20.3zM180.4 20.3v14.9h9.6v-2.4h-6.8v-4h5.2v-2.3h-5.2v-3.9h6.5v-2.3zM58.4 41.7h2.8v9.6c0 2 1.4 3.1 3.5 3.1s3.5-1.1 3.5-3.2v-9.6H71v9.6c0 3.4-2.5 5.6-6.3 5.6s-6.3-2.3-6.3-5.6v-9.5zM75.7 41.8h2.8l5.9 8.6 1.3 2.3-.2-2.3v-8.6h2.8v14.8h-2.8l-5.9-8.5-1.3-2.3.2 2.3v8.5h-2.8V41.8zM93.3 41.8h2.8v14.8h-2.8zM99.2 41.8h3l3.4 9.7.6 2.2h.1l.6-2.2 3.4-9.7h3l-5.6 14.8h-2.8l-5.7-14.8zM116.3 41.8h9.2v2.3h-6.4V48h5.2v2.3h-5.2v4h6.8v2.4h-9.6zM135.2 48.8c1.5 0 2.4-.9 2.4-2.3s-.6-2.3-2.8-2.3h-2.1v4.6h2.5zm-5.3-7h5c1.7 0 2.4.1 3.1.4 1.5.7 2.5 2.1 2.5 4.1 0 1.8-1 3.4-2.6 4.1l.5.7 3.2 5.5h-3.1l-3.1-5.5h-2.7v5.5h-2.8V41.8zM145.6 52.9s1.7 1.6 3.9 1.6c1.2 0 2.2-.6 2.2-1.8 0-2.7-7.3-2.2-7.3-6.8 0-2.5 2.2-4.3 5.2-4.3s4.6 1.6 4.6 1.6l-1.2 2.2s-1.5-1.3-3.4-1.3c-1.3 0-2.3.7-2.3 1.8 0 2.6 7.3 2 7.3 6.7 0 2.4-1.9 4.3-5.1 4.3-3.4 0-5.3-2-5.3-2l1.4-2zM158.4 41.8h2.8v14.8h-2.8zM169.4 44.1h-5v-2.3h12.9v2.3h-5.1v12.6h-2.8zM180.5 41.8v14.8h9.6v-2.3h-6.8v-4h5.2V48h-5.2v-3.9h6.4v-2.3h-9.2zm5.3-3.8-1.7 2.8h2.2l2.3-2.8h-2.8z" class="st1"/></svg>
