<svg xmlns="http://www.w3.org/2000/svg" xml:space="preserve" width="117" height="15" viewBox="-.1 -.4 117 15"><path fill="#171F69" d="M0 .4c6.7-.6 16 0 16 0v2.4H9.7v10.5H6.6V2.8H.1L0 .4"/><path fill="#3CC2D2" d="M52.2 9.5a2 2 0 1 1-4 0 2 2 0 0 1 4 0"/><path fill="#171F69" d="M33.3.2v5.3h-8.5V.2l-3.2.2v13.1l3.2.1V7.9h8.5v5.7l3.2-.1V.4L33.3.2M41.4 13.3 48.8.4h3.1l7.5 12.9-3.5.3-5.5-10.1h-.3l-5.6 10-3.1-.2M64.1 13.3V.5H67V11h10.2v2.3s-6.7 1.4-13.1 0M82.2 13.4V.4s9.2-1 13.9.1V3L85.5 3v2.6h6.1v2.5h-6.1v3h10.8v2.4s-8 1.1-14.1 0M115.9.3V3h-11.6v2.6h9.5c1.3 0 2.3 1.1 2.3 2.2v3.4c0 2.2-2.3 2.8-4.4 2.8-3.2 0-8.5 0-10.3-.4v-2.4h11.9V8.2h-8.9c-1.4 0-2.9-.8-2.9-1.8V2.5c0-1.3 1.8-2.2 3.2-2.2h11.2"/></svg>
